<svg xmlns="http://www.w3.org/2000/svg" viewBox="100 110 245 220" role="img" aria-label="Highland Primary Care icon">
  <title>Highland Primary Care</title>
  <path d="M 270 154.790 C 270 181.878, 269.697 189.744, 268.472 194.448 C 262.625 216.893, 240.238 237.857, 211.940 247.387 C 207.028 249.040, 205.366 249.974, 206.642 250.362 C 217.334 253.615, 247.884 254.270, 262.933 251.568 C 295.506 245.721, 320.726 230.372, 331.524 209.822 C 338.333 196.864, 339 191.916, 339 154.340 L 339 121 304.500 121 L 270 121 270 154.790 M 207.500 195.004 C 170.456 199.034, 140.012 216.134, 128.670 239.282 C 122.335 252.212, 122 254.901, 122 292.894 L 122 327 156 327 L 190 327 190 295.958 C 190 271.573, 190.339 263.263, 191.581 257.208 C 196.584 232.819, 217.007 212.001, 246.229 201.502 C 251.504 199.607, 254.853 197.931, 254 197.613 C 247.417 195.164, 220.110 193.632, 207.500 195.004" stroke="none" fill="#D52B3D" fill-rule="evenodd"/>
  <path d="M 122 170.115 L 122 219.230 126.436 213.841 C 139.883 197.508, 168.112 183, 186.447 183 L 190 183 190 152 L 190 121 156 121 L 122 121 122 170.115 M 332 236.244 C 323.728 245.264, 315.678 251.264, 305.206 256.216 C 296.198 260.475, 280.057 265, 273.872 265 L 270 265 270 296 L 270 327 304.500 327 L 339 327 339 278 C 339 251.050, 338.887 229.035, 338.750 229.078 C 338.613 229.121, 335.575 232.345, 332 236.244" stroke="none" fill="#2C8AC9" fill-rule="evenodd"/>
</svg>
