<svg xmlns="http://www.w3.org/2000/svg" viewBox="0 0 1080 444" role="img" aria-label="Highland Primary Care">
  <title>Highland Primary Care</title>
  <path d="M 270 154.790 C 270 181.878, 269.697 189.744, 268.472 194.448 C 262.625 216.893, 240.238 237.857, 211.940 247.387 C 207.028 249.040, 205.366 249.974, 206.642 250.362 C 217.334 253.615, 247.884 254.270, 262.933 251.568 C 295.506 245.721, 320.726 230.372, 331.524 209.822 C 338.333 196.864, 339 191.916, 339 154.340 L 339 121 304.500 121 L 270 121 270 154.790 M 207.500 195.004 C 170.456 199.034, 140.012 216.134, 128.670 239.282 C 122.335 252.212, 122 254.901, 122 292.894 L 122 327 156 327 L 190 327 190 295.958 C 190 271.573, 190.339 263.263, 191.581 257.208 C 196.584 232.819, 217.007 212.001, 246.229 201.502 C 251.504 199.607, 254.853 197.931, 254 197.613 C 247.417 195.164, 220.110 193.632, 207.500 195.004" stroke="none" fill="#ffffff" fill-rule="evenodd"/>
  <path d="M 122 170.115 L 122 219.230 126.436 213.841 C 139.883 197.508, 168.112 183, 186.447 183 L 190 183 190 152 L 190 121 156 121 L 122 121 122 170.115 M 332 236.244 C 323.728 245.264, 315.678 251.264, 305.206 256.216 C 296.198 260.475, 280.057 265, 273.872 265 L 270 265 270 296 L 270 327 304.500 327 L 339 327 339 278 C 339 251.050, 338.887 229.035, 338.750 229.078 C 338.613 229.121, 335.575 232.345, 332 236.244" stroke="none" fill="#ffffff" fill-rule="evenodd"/>
  <path d="M 507.612 117.103 C 495.473 118.875, 485.971 127.323, 481.858 140 C 479.220 148.132, 478.092 176.164, 479.927 188 C 483.121 208.606, 494.023 218.962, 513.412 219.812 C 527.717 220.438, 536.843 218.018, 545.750 211.237 L 549 208.763 549 187.381 L 549 166 532 166 L 515 166 515 173.500 L 515 181 522 181 L 529 181 529 190.474 L 529 199.949 526.050 201.474 C 521.763 203.691, 512.261 203.456, 508.290 201.035 C 501.682 197.006, 500.578 192.894, 500.178 170.814 C 499.685 143.625, 501.840 136.720, 511.635 134.108 C 520.286 131.802, 526.503 135.515, 528.444 144.148 L 529.647 149.500 539.467 149.788 L 549.288 150.076 548.716 144.535 C 547.584 133.570, 542.012 124.590, 533.722 120.370 C 529.985 118.468, 516.786 115.645, 514 116.153 C 513.725 116.203, 510.851 116.631, 507.612 117.103 M 355 168.500 L 355 219 365 219 L 375 219 375 197.500 L 375 176 390 176 L 405 176 405 197.500 L 405 219 415.500 219 L 426 219 426 168.500 L 426 118 415.500 118 L 405 118 405 138.527 L 405 159.053 390.250 158.777 L 375.500 158.500 375.229 138.250 L 374.959 118 364.979 118 L 355 118 355 168.500 M 443 168.500 L 443 219 453.500 219 L 464 219 464 168.500 L 464 118 453.500 118 L 443 118 443 168.500 M 564 168.500 L 564 219 574 219 L 584 219 584 197.500 L 584 176 599.500 176 L 615 176 615 197.500 L 615 219 625 219 L 635 219 635 168.500 L 635 118 625.021 118 L 615.041 118 614.771 138.250 L 614.500 158.500 599.500 158.500 L 584.500 158.500 584.229 138.250 L 583.959 118 573.979 118 L 564 118 564 168.500 M 651 168.500 L 651 219 679.500 219 L 708 219 708 210.500 L 708 202 690 202 L 672 202 672 160 L 672 118 661.500 118 L 651 118 651 168.500 M 730.107 167.250 C 721.656 194.338, 714.527 217.063, 714.264 217.750 C 713.899 218.703, 716.397 219, 724.783 219 L 735.781 219 737.930 210.750 C 741.573 196.769, 739.893 198, 755.325 198 L 768.693 198 771.477 208.500 L 774.260 219 785.246 219 C 795.227 219, 796.189 218.840, 795.752 217.250 C 795.488 216.287, 788.372 193.563, 779.938 166.750 L 764.604 118 755.038 118 L 745.472 118 730.107 167.250 M 806 168.465 L 806 219 815.986 219 L 825.973 219 826.236 186.431 L 826.500 153.862 841.040 186.181 L 855.580 218.500 865.790 218.785 L 876 219.070 876 168.535 L 876 118 866.014 118 L 856.027 118 855.764 150.443 L 855.500 182.886 840.996 150.693 L 826.492 118.500 816.246 118.215 L 806 117.930 806 168.465 M 893 168.594 L 893 219.187 911.750 218.829 C 933.891 218.406, 939.192 216.779, 947.554 207.839 C 956.716 198.044, 957.500 194.941, 957.500 168.479 L 957.500 145.458 954.226 138.807 C 949.681 129.576, 942.052 122.714, 933.339 120.023 C 927.860 118.331, 924.029 118, 909.895 118 L 893 118 893 168.594 M 913 168.500 L 913 202 918.750 201.978 C 927.374 201.945, 932.548 199.225, 935.293 193.280 C 937.336 188.855, 937.500 187.014, 937.500 168.500 C 937.500 149.986, 937.336 148.145, 935.293 143.720 C 932.548 137.775, 927.374 135.055, 918.750 135.022 L 913 135 913 168.500 M 750.634 162.250 C 748.620 170.088, 746.702 177.512, 746.370 178.750 C 745.776 180.964, 745.913 181, 755 181 C 764.087 181, 764.224 180.964, 763.630 178.750 C 763.298 177.512, 761.380 170.088, 759.366 162.250 C 757.352 154.412, 755.388 148, 755 148 C 754.612 148, 752.648 154.412, 750.634 162.250 M 767.885 252.318 C 761.749 254.615, 758.239 257.813, 755.312 263.774 C 752.585 269.327, 752.500 269.985, 752.500 285.500 C 752.500 301.095, 752.573 301.648, 755.372 307.350 C 760.214 317.210, 770.583 321.654, 782.556 318.999 C 792.362 316.825, 797.890 310.674, 799.406 300.250 L 800.024 296 793.100 296 L 786.176 296 785.482 300.106 C 784.524 305.779, 782.027 308, 776.611 308 C 768.074 308, 766.064 303.765, 766.024 285.693 C 765.984 267.573, 768.318 262.500, 776.693 262.500 C 782.024 262.500, 784.664 265.044, 785.635 271.120 L 786.256 275 793.140 275 L 800.024 275 799.387 270.750 C 798.334 263.713, 794.105 256.860, 789.128 254.121 C 783.775 251.176, 773.310 250.288, 767.885 252.318 M 359 285.412 L 359 319 366 319 L 373 319 373 307 L 373 295 381.184 295 C 396.464 295, 403.238 289.034, 403.811 275.073 C 404.196 265.675, 401.719 260.070, 395.167 255.513 C 390.855 252.515, 390.753 252.498, 374.917 252.162 L 359 251.824 359 285.412 M 414 285.500 L 414 319 420.469 319 L 426.938 319 427.219 306.750 L 427.500 294.500 430.642 294.195 C 433.776 293.890, 433.795 293.918, 439.056 306.445 L 444.328 319 451.664 319 C 455.699 319, 459 318.615, 459 318.145 C 459 317.675, 456.525 311.635, 453.500 304.722 C 447.075 290.040, 447.307 291.333, 450.626 288.723 C 458.760 282.324, 459.098 263.671, 451.207 256.655 C 447.222 253.111, 442.024 252.089, 427.750 252.044 L 414 252 414 285.500 M 467 285.500 L 467 319 474 319 L 481 319 481 285.500 L 481 252 474 252 L 467 252 467 285.500 M 492 285.500 L 492 319 499.140 319 L 506.281 319 505.784 297.500 C 505.511 285.675, 505.392 276, 505.518 276 C 505.645 276, 508.604 285.675, 512.093 297.500 L 518.436 319 523.158 319 L 527.879 319 530.377 310.750 C 531.751 306.212, 534.527 296.875, 536.545 290 C 538.564 283.125, 540.421 277.284, 540.672 277.019 C 540.923 276.755, 540.807 286.092, 540.414 297.769 L 539.699 319 546.850 319 L 554 319 554 285.500 L 554 252 545.039 252 L 536.077 252 534.711 256.750 C 533.959 259.363, 531.137 269.919, 528.439 280.210 C 525.742 290.500, 523.256 298.375, 522.916 297.710 C 522.576 297.044, 519.656 286.488, 516.428 274.250 L 510.560 252 501.280 252 L 492 252 492 285.500 M 572.250 284.315 C 566.612 302.081, 562 317.153, 562 317.809 C 562 318.617, 564.244 319, 568.972 319 L 575.944 319 577.541 313.250 C 578.419 310.087, 579.317 306.938, 579.537 306.250 C 579.818 305.371, 582.630 305, 589 305 C 595.358 305, 598.189 305.373, 598.485 306.250 C 598.717 306.938, 599.635 310.087, 600.525 313.250 L 602.142 319 609.654 319 C 615.240 319, 617.050 318.679, 616.712 317.750 C 616.462 317.063, 611.588 301.988, 605.881 284.250 L 595.505 252 589.003 252.007 L 582.500 252.013 572.250 284.315 M 623 285.500 L 623 319 630 319 L 637 319 637 306.437 L 637 293.873 640.250 294.187 C 643.384 294.489, 643.683 294.928, 648.632 306.500 L 653.764 318.500 661.382 318.792 C 665.572 318.953, 669 318.905, 669 318.687 C 669 318.468, 666.356 312.261, 663.124 304.894 L 657.249 291.500 661.091 287.309 C 670.411 277.141, 668.105 260.221, 656.618 254.497 C 651.977 252.184, 650.551 252, 637.304 252 L 623 252 623 285.500 M 669.297 252.706 C 669.554 253.143, 673.643 262.582, 678.383 273.681 L 687 293.863 687 306.431 L 687 319 694 319 L 701 319 701 307.409 L 701 295.819 710.405 273.909 L 719.810 252 712.155 252.006 L 704.500 252.013 699.428 266.663 L 694.356 281.314 689.419 266.907 L 684.482 252.500 676.655 252.206 C 672.350 252.045, 669.039 252.270, 669.297 252.706 M 824.418 253.353 C 823.104 256.778, 804 317.410, 804 318.156 C 804 319.570, 818.003 319.177, 818.485 317.750 C 818.717 317.063, 819.640 313.896, 820.535 310.714 L 822.163 304.927 831.297 305.214 L 840.432 305.500 842.360 312.250 L 844.287 319 851.711 319 C 858.950 319, 859.117 318.944, 858.435 316.750 C 858.051 315.512, 853.296 300.656, 847.868 283.735 C 842.441 266.814, 838 252.751, 838 252.485 C 838 251.235, 824.909 252.072, 824.418 253.353 M 865 285.430 L 865 319 871.969 319 L 878.938 319 879.219 306.750 L 879.500 294.500 882.086 294.199 C 885.446 293.809, 885.884 294.441, 891.468 307.750 L 896.188 319 903.661 319 C 912.439 319, 912.340 320.606, 904.623 303.277 L 899.329 291.387 902.980 287.886 C 912.402 278.853, 910.337 259.867, 899.339 254.406 C 896.180 252.838, 892.799 252.443, 880.250 252.180 L 865 251.859 865 285.430 M 918 285.500 L 918 319 937.500 319 L 957 319 957 313.531 L 957 308.062 944.750 307.781 L 932.500 307.500 932.211 298.750 L 931.922 290 942.461 290 L 953 290 953 284.500 L 953 279 942.500 279 L 932 279 932 271 L 932 263 944.500 263 L 957 263 957 257.500 L 957 252 937.500 252 L 918 252 918 285.500 M 373 273.500 L 373 284 379.045 284 C 387.198 284, 390 281.434, 390 273.969 C 390 266.484, 386.371 263, 378.577 263 L 373 263 373 273.500 M 427.750 263.570 C 427.337 263.990, 427 268.533, 427 273.667 L 427 283 432.545 283 C 440.082 283, 443 280.252, 443 273.156 C 443 266.164, 440.847 263.816, 433.916 263.250 C 430.937 263.006, 428.163 263.150, 427.750 263.570 M 637 273 L 637 283 642.066 283 C 648.534 283, 650.558 281.870, 652.019 277.442 C 654.759 269.139, 650.443 263, 641.865 263 L 637 263 637 273 M 879 272.880 L 879 283 884.389 283 C 892.369 283, 894.500 280.918, 894.500 273.124 C 894.500 265.283, 893.063 263.777, 885.030 263.196 L 879 262.760 879 272.880 M 586.217 280.750 C 584.978 285.563, 583.695 290.512, 583.366 291.750 C 582.792 293.907, 583.025 294, 589 294 C 594.975 294, 595.208 293.907, 594.634 291.750 C 594.305 290.512, 593.022 285.563, 591.783 280.750 C 590.544 275.938, 589.292 272, 589 272 C 588.708 272, 587.456 275.938, 586.217 280.750 M 830.581 273.107 C 830.325 273.873, 829.159 278.100, 827.990 282.500 C 826.821 286.900, 825.640 291.288, 825.365 292.250 C 824.928 293.779, 825.630 294, 830.933 294 C 834.270 294, 837 293.590, 837 293.089 C 837 291.844, 831.879 272.597, 831.417 272.107 C 831.214 271.891, 830.837 272.341, 830.581 273.107" stroke="none" fill="#ffffff" fill-rule="evenodd"/>
</svg>
